<?xml version="1.0" encoding="UTF-8" standalone="no"?>
<!-- Created with Inkscape (http://www.inkscape.org/) -->

<svg
   width="100mm"
   height="100mm"
   viewBox="0 0 99.999999 100"
   version="1.1"
   id="svg1"
   xml:space="preserve"
   inkscape:version="1.4.2 (1:1.4.2+202505120737+ebf0e940d0)"
   sodipodi:docname="logo.svg"
   xmlns:inkscape="http://www.inkscape.org/namespaces/inkscape"
   xmlns:sodipodi="http://sodipodi.sourceforge.net/DTD/sodipodi-0.dtd"
   xmlns="http://www.w3.org/2000/svg"
   xmlns:svg="http://www.w3.org/2000/svg"><sodipodi:namedview
     id="namedview1"
     pagecolor="#ffffff"
     bordercolor="#000000"
     borderopacity="0.25"
     inkscape:showpageshadow="2"
     inkscape:pageopacity="0.0"
     inkscape:pagecheckerboard="0"
     inkscape:deskcolor="#d1d1d1"
     inkscape:document-units="mm"
     inkscape:zoom="3.4529461"
     inkscape:cx="221.83955"
     inkscape:cy="140.89418"
     inkscape:window-width="2494"
     inkscape:window-height="1363"
     inkscape:window-x="1986"
     inkscape:window-y="65"
     inkscape:window-maximized="1"
     inkscape:current-layer="g3" /><defs
     id="defs1" /><g
     inkscape:label="Layer 1"
     inkscape:groupmode="layer"
     id="layer1"
     transform="translate(-54.766558,-91.098688)"><g
       id="g2"
       transform="matrix(0.26458333,0,0,0.26458333,49.779242,85.862584)"><g
         id="Camada_2"
         class="st0">
	<g
   class="st1"
   id="g1">
		<rect
   x="0.5"
   y="0.5"
   width="426"
   height="478"
   id="rect1" />
		<path
   class="st2"
   d="M 426,1 V 478 H 1 V 1 h 425 m 1,-1 H 0 v 479 h 427 z"
   id="path1" />
	</g>
</g><rect
         x="67"
         y="251"
         class="st5"
         width="268"
         height="17"
         id="rect37" /><g
         id="g3"
         transform="matrix(0.98399606,0,0,0.98399606,2.3016695,4.9218523)"><path
           class="st3"
           d="m 206.49,161.03 c -0.61,0 -1.23,-0.01 -1.86,-0.03 -8.58,-0.3 -17.23,-2.66 -25.73,-7.01 -3.66,-1.87 -5.89,-3.48 -8.04,-5.03 -2.8,-2.01 -5.44,-3.92 -11.08,-6.45 -5.24,-2.35 -10.59,-4.14 -15.91,-5.3 -3.87,-0.85 -8.44,-0.79 -12.11,-0.74 h -0.38 c -0.76,0 -1.42,-0.53 -1.55,-1.3 -0.13,-0.76 0.32,-1.49 1.05,-1.73 26.26,-8.52 52.21,-12.81 77.17,-12.74 34.9,0.09 63.96,8.03 78.17,12.77 0.54,0.18 0.85,0.71 0.75,1.27 -0.1,0.55 -0.54,0.96 -1.15,0.92 v 0 c -6.02,-0.25 -11.07,0.01 -15.01,0.79 -5.11,1 -8.97,2.47 -12.08,3.77 -7.27,3.05 -11.25,5.68 -15.1,8.23 -2.84,1.88 -5.53,3.66 -9.39,5.55 -3.98,1.96 -14.29,7.03 -27.75,7.03 z m -71.9,-26.59 c 3.14,0 6.59,0.13 9.7,0.81 5.45,1.2 10.93,3.02 16.3,5.43 5.83,2.62 8.68,4.67 11.43,6.65 2.19,1.58 4.26,3.07 7.79,4.87 8.23,4.22 16.61,6.5 24.89,6.79 13.86,0.49 24.62,-4.81 28.67,-6.8 3.74,-1.84 6.38,-3.58 9.17,-5.43 3.93,-2.6 7.99,-5.28 15.43,-8.4 3.01,-1.26 7.15,-2.85 12.46,-3.89 2.7,-0.53 5.89,-0.83 9.53,-0.9 -15.4,-4.67 -41.4,-10.8 -71.91,-10.87 -0.17,0 -0.35,0 -0.52,0 -23.67,0 -48.27,3.95 -73.17,11.73 0.07,0.01 0.15,0.01 0.23,0.01 z"
           id="path14"
           style="stroke-width:11.3386;stroke-dasharray:none;stroke:none;stroke-opacity:1" /><path
           class="st3"
           d="M 205.23,307.54 C 139.46,307.54 98.5,263.6 90.9,254.7 l -6.29,-7.35 7.66,5.91 c 6.32,4.88 23.49,15.92 46.32,13.11 33.91,-4.18 49.2,-35.67 49.83,-37.01 l 0.21,-0.44 0.47,-0.11 c 6.39,-1.46 12.94,-1.98 19.46,-1.56 5.55,0.36 11.04,1.41 16.35,3.11 l 0.39,0.13 0.19,0.36 c 3.87,7.44 11.2,17.94 24.17,25.68 14.22,8.49 27.96,9.18 33.21,9.06 19.65,-0.39 30.37,-7 33.18,-9.02 l 6.89,-4.94 -5.55,6.41 c -4.23158,4.87564 -19.80018,21.47962 -45.64371,34.12237 -17.09082,8.36089 -38.67532,14.98937 -64.44629,15.34763 -0.69,0.02 -1.38,0.03 -2.07,0.03 z M 98.19,259.62 c 14.93,15.05 53.09,46.69 109.08,45.9 55.27,-0.77 91.01,-30.74 104.13,-43.98 -5.68,2.68 -15.09,5.79 -28.49,6.06 -5.4,0.1 -19.61,-0.59 -34.27,-9.34 -13.15,-7.85 -20.69,-18.46 -24.72,-26.1 -5.02,-1.58 -10.23,-2.56 -15.47,-2.9 -6.17,-0.4 -12.36,0.07 -18.42,1.41 -2.09,4.16 -17.97,33.61 -51.18,37.7 -17.52,2.15 -31.81,-3.59 -40.66,-8.75 z"
           id="path15"
           sodipodi:nodetypes="sccccccccccccccccscscccccccccc" /><path
           class="st4"
           d="M 90.41,180.33"
           id="path16" /><path
           class="st4"
           d="M 75.93,200.7"
           id="path17" /><path
           class="st4"
           d="M 75.93,200.7"
           id="path18" /><path
           class="st4"
           d="M 75.93,200.7"
           id="path19" /><path
           class="st4"
           d="M 75.93,200.7"
           id="path20" /><path
           class="st3"
           d="m 131.13,268.54 c -14.22,0 -27.71,-4.53 -39.01,-13.11 -16.26,-12.34 -25.58,-31.1 -25.58,-51.48 0,-35.61 28.97,-64.59 64.59,-64.59 35.61,0 64.59,28.97 64.59,64.59 0,13.14 -4.07,23.13 -5.82,26.82 -10.7,22.59 -34.32,37.77 -58.77,37.77 z m 0,-127.18 c -34.51,0 -62.59,28.08 -62.59,62.59 0,19.75 9.03,37.93 24.79,49.89 10.95,8.31 24.02,12.7 37.8,12.7 23.69,0 46.58,-14.72 56.97,-36.62 1.69,-3.57 5.62,-13.23 5.62,-25.96 0,-34.52 -28.07,-62.6 -62.59,-62.6 z"
           id="path21" /><path
           class="st3"
           d="m 282.55,267.96 c -35.61,0 -64.59,-28.97 -64.59,-64.59 0,-35.61 28.97,-64.59 64.59,-64.59 35.62,0 64.59,28.97 64.59,64.59 0,35.62 -28.98,64.59 -64.59,64.59 z m 0,-127.17 c -34.51,0 -62.59,28.08 -62.59,62.59 0,34.51 28.08,62.59 62.59,62.59 34.51,0 62.59,-28.08 62.59,-62.59 0,-34.51 -28.08,-62.59 -62.59,-62.59 z"
           id="path22" /><path
           class="st3"
           d="m 282.64,258.89 c -30.32,0 -54.98,-24.67 -54.98,-54.98 0,-30.31 24.67,-54.98 54.98,-54.98 30.31,0 54.98,24.67 54.98,54.98 0,30.31 -24.66,54.98 -54.98,54.98 z m 0,-107.97 c -29.22,0 -52.98,23.77 -52.98,52.98 0,29.21 23.77,52.98 52.98,52.98 29.21,0 52.98,-23.77 52.98,-52.98 0,-29.21 -23.77,-52.98 -52.98,-52.98 z"
           id="path23" /><path
           class="st3"
           d="m 130.43,259.11 c -30.32,0 -54.98,-24.67 -54.98,-54.98 0,-30.31 24.67,-54.98 54.98,-54.98 30.31,0 54.98,24.67 54.98,54.98 0,30.31 -24.66,54.98 -54.98,54.98 z m 0,-107.97 c -29.22,0 -52.98,23.77 -52.98,52.98 0,29.21 23.77,52.98 52.98,52.98 29.21,0 52.98,-23.77 52.98,-52.98 0,-29.21 -23.76,-52.98 -52.98,-52.98 z"
           id="path24" /><path
           class="st3"
           d="m 194.95,242.95 c -0.11,-1.36 0.43,-2.68 1.46,-3.57 1.65,-1.41 4.36,-3.24 9.35,-3.44 3.86,-0.15 7.33,1.1 9.58,2.21 1.3,0.64 2.16,1.92 2.28,3.36 0.21,2.49 0.18,6.36 -2.33,9.89 -2.09,2.94 -4.85,4.06 -6.83,5.12 -1.19,0.64 -2.62,0.65 -3.82,0.02 -1.73,-0.9 -4.09,-1.77 -6.22,-4.49 -2.56,-3.28 -3.29,-6.79 -3.47,-9.1 z"
           id="path25" /><path
           class="st3"
           d="m 119.54,151.56 c -2.41,4.33 -6.16,12.42 -7.04,23.26 -0.89,10.96 1.58,19.62 3.28,24.29 -3.79,0.65 -8.82,1.07 -14.62,0.36 -11.19,-1.37 -18.8,-5.81 -23.03,-8.8 1.1,-4.56 4.7,-16.73 16.1,-26.84 9.96,-8.81 20.6,-11.41 25.31,-12.27 z"
           id="path26" /><path
           class="st3"
           d="m 145.52,152.31 c -2.29,3.05 -5.05,8.85 -6.98,14.98 -3.24,10.32 -1.98,19.26 -1.01,23.74 4.62,-1.24 12.51,-2.72 22.12,-1.31 11.93,1.75 20.33,7.03 24.41,10.02 -0.46,-5.1 -2.18,-16.26 -10.21,-27.29 -10.06,-13.83 -23.63,-18.69 -28.33,-20.14 z"
           id="path27" /><path
           class="st3"
           d="m 122.73,218.22 c 0.58,4.09 1,10.6 -0.75,18.26 -1.97,8.64 -5.79,14.85 -8.33,18.35 -4.59,-1.48 -14.23,-5.27 -22.74,-14.56 -9.66,-10.54 -12.28,-22.08 -13.09,-26.81 3.86,2.46 11.86,6.83 22.94,7.77 9.92,0.86 17.77,-1.44 21.97,-3.01 z"
           id="path28" /><path
           class="st3"
           d="m 138.72,257.39 c 4.99,-0.76 16.94,-3.11 28.21,-13.43 8.96,-8.2 12.92,-17.4 14.59,-22.17 -3.13,-2.44 -7.56,-5.33 -13.33,-7.55 -9.88,-3.81 -18.71,-3.74 -23.78,-3.3 1.41,4.58 2.99,11.73 2.39,20.47 -0.86,12.52 -5.23,21.44 -8.08,25.98 z"
           id="path29" /><path
           class="st3"
           d="m 272.92,150.8 c -2.52,4.11 -6.48,12.05 -7.52,23.31 -1.02,11.08 1.59,19.8 3.28,24.29 -3.79,0.65 -8.82,1.07 -14.62,0.36 -11.19,-1.37 -19.18,-6.22 -23.41,-9.21 1.49,-4.95 5.69,-16.79 17.29,-26.68 9.91,-8.45 19.91,-11.03 24.98,-12.07 z"
           id="path30" /><path
           class="st3"
           d="m 297.46,152.33 c -2.67,3.56 -5.07,9.57 -6.78,15.01 -3.24,10.32 -1.98,19.26 -1.01,23.74 4.62,-1.24 12.51,-2.72 22.12,-1.31 11.93,1.75 20.33,7.03 24.41,10.02 -0.46,-5.1 -1.09,-15.51 -8.83,-26.75 -9.58,-13.9 -25.49,-20.22 -29.91,-20.71 z"
           id="path31" /><path
           class="st3"
           d="m 274.86,218.27 c 0.58,4.09 1,10.6 -0.75,18.26 -1.97,8.64 -5.79,14.85 -8.33,18.35 -4.59,-1.48 -14.23,-5.27 -22.74,-14.56 -9.66,-10.54 -12.28,-22.08 -13.09,-26.81 3.86,2.46 11.86,6.83 22.94,7.77 9.93,0.85 17.77,-1.44 21.97,-3.01 z"
           id="path32" /><path
           class="st3"
           d="m 290.33,256.92 c 4.99,-0.76 17.46,-3.35 28.73,-13.68 8.96,-8.2 12.92,-17.4 14.59,-22.17 -3.13,-2.44 -7.56,-5.33 -13.33,-7.55 -9.88,-3.81 -18.71,-3.74 -23.78,-3.3 1.41,4.58 2.99,11.73 2.39,20.47 -0.86,12.52 -5.74,21.68 -8.6,26.23 z"
           id="path33" /><path
           class="st3"
           d="M 68.18,203.29 66.63,201.8 C 48.82,184.62 35.21,163.27 27.27,140.05 19.03,115.97 18.84,81.59 18.85,77.75 c 0,-0.47 0.23,-0.9 0.63,-1.15 0.4,-0.25 0.88,-0.29 1.31,-0.1 17.71,7.87 32.91,17.77 46.45,30.28 13.11,12.11 24.2,26.15 32.96,41.72 l 0.48,0.85 -0.84,0.5 c -6.11,3.62 -14.84,10.22 -21.69,21.09 -7.22,11.44 -9.32,22.74 -9.82,30.21 z M 20.85,78.72 c 0.04,6.77 0.65,38.29 8.31,60.69 7.62,22.25 20.51,42.77 37.34,59.47 0.76,-7.63 3.16,-18.26 9.94,-29.01 6.76,-10.71 15.28,-17.4 21.53,-21.23 C 89.39,133.58 78.6,120 65.88,108.25 52.73,96.1 37.99,86.43 20.85,78.72 Z"
           id="path34" /><path
           class="st3"
           d="m 345.3,207.25 -0.04,-2.27 c -0.13,-8.45 -1.91,-21.22 -9.62,-34.07 -4.36,-7.27 -10.02,-13.61 -16.83,-18.83 l -0.66,-0.5 0.37,-0.74 c 8,-15.82 18.45,-30.12 31.08,-42.5 C 363.43,94.77 379.45,83.89 397.2,76 l 0.48,-0.21 0.91,0.55 0.04,0.54 c 1.19,22.47 -2.12,44.5 -9.82,65.5 -8.76,23.88 -23.24,45.77 -41.88,63.33 z m -24.61,-56.24 c 6.72,5.28 12.32,11.63 16.67,18.88 7.28,12.14 9.42,24.19 9.83,32.81 17.63,-17.08 31.36,-38.13 39.75,-61.02 7.44,-20.3 10.73,-41.58 9.77,-63.27 -17.01,7.74 -32.39,18.28 -45.71,31.35 -12.26,12.04 -22.46,25.91 -30.31,41.25 z"
           id="path35" /><path
           class="st3"
           d="m 189.33,229.79 c 11.45,-24.75 4.91,-52.99 -14.64,-71.65 -20.13,-19.21 -50.86,-22.99 -75.32,-9.17 -0.03,0.01 -0.06,0.01 -0.07,-0.02 -6.05,-10.62 -15.24,-24.16 -28.9,-37.6 -18.33,-18.02 -37.09,-28.11 -50.16,-34 -0.08,-0.03 -0.05,-0.15 0.04,-0.14 13.89,1.07 37.96,4.47 63.93,18.81 22.6,12.48 37.41,27.94 45.89,38.33 0.23,0.28 0.45,0.55 0.66,0.82 0.01,0.01 0.02,0.02 0.04,0.02 12.35,-0.05 21.2,2.73 27.03,5.31 10.62,4.69 14.2,10.02 25.31,14.57 9.31,3.81 17.84,4.59 23.56,4.66 0,0 0,0 0,0 7.04,-0.32 15.67,-1.62 24.75,-5.43 12.88,-5.4 16.92,-11.76 29.14,-16.1 6.26,-2.23 14.52,-3.87 25.07,-3.01 0.02,0 0.03,-0.01 0.04,-0.02 9.51,-11.66 28.59,-31.8 59.24,-45.29 20.65,-9.09 39.41,-12.02 52.4,-12.96 0.06,0 0.08,0.08 0.02,0.1 -13.9,6.09 -35.86,18 -55.49,40.46 -10.51,12.03 -17.62,23.95 -22.42,33.75 -0.01,0.03 -0.05,0.04 -0.07,0.02 -25.38,-16.83 -58.86,-14.05 -80.26,6.11 -19.64,18.5 -25.42,48.19 -14.06,73.57 0.02,0.04 -0.02,0.09 -0.06,0.07 -4.01,-1.4 -9.98,-2.96 -17.32,-3.09 -8.33,-0.14 -18.37,1.92 -18.35,1.88 z"
           id="path36" /><path
           class="st4"
           d="M 105.74,166.9"
           id="path37" /><rect
           x="205.5"
           y="256.5"
           class="st3"
           width="2"
           height="51"
           id="rect38" /></g></g></g><style
     type="text/css"
     id="style1">
	.st0{display:none;}
	.st1{display:inline;}
	.st2{fill:#FFFFFF;}
	.st3{fill:#904FFF;}
	.st4{fill:#904FFF;stroke:#020202;stroke-width:2;stroke-miterlimit:10;}
	.st5{display:none;fill:#45A9FF;}
</style></svg>
